<svg id="b36bb15c-61a7-401b-9f3b-cbf963c0d81c" data-name="Layer 1" xmlns="http://www.w3.org/2000/svg" viewBox="0 0 400 400"><defs><style>.a7d71b17-58ac-4807-88f0-4a0805610d6d{fill:#006949;}.b0e17127-01b4-44a3-b4e6-3348c011a615{fill:none;stroke:#006949;stroke-miterlimit:10;stroke-width:7.04px;}</style></defs><path class="a7d71b17-58ac-4807-88f0-4a0805610d6d" d="M170.9,166.48q5.29-7.89,17.11-7.89t17.11,7.89q5.3,7.91,5.3,21.62,0,13.88-5.3,21.77T188,217.77q-11.81,0-17.11-7.9t-5.3-21.77Q165.6,174.38,170.9,166.48Zm24.36,9.22q-1.74-4.35-7.25-4.35t-7.26,4.35Q179,180,179,188.1a52.71,52.71,0,0,0,.64,9,11.43,11.43,0,0,0,2.6,5.74,8.69,8.69,0,0,0,11.56,0,11.42,11.42,0,0,0,2.59-5.74,51.7,51.7,0,0,0,.64-9Q197,180,195.26,175.7Z"/><path class="a7d71b17-58ac-4807-88f0-4a0805610d6d" d="M220.31,163.05q5.26-4.62,14.27-4.62a23.28,23.28,0,0,1,10.25,2.07,15,15,0,0,1,6.46,5.66,15.19,15.19,0,0,1,2.2,8.06,13.22,13.22,0,0,1-8.78,13.08v.32a14.36,14.36,0,0,1,7.18,5,14.6,14.6,0,0,1,2.63,9,16.61,16.61,0,0,1-2.27,8.73,15.6,15.6,0,0,1-6.62,5.94,23,23,0,0,1-10.33,2.15q-9.57,0-15.27-4.7t-6-14.2h13.24a8,8,0,0,0,2,5.54,7.3,7.3,0,0,0,5.58,2,6.36,6.36,0,0,0,4.83-1.8,6.57,6.57,0,0,0,1.71-4.74q0-3.83-2.43-5.54t-7.78-1.72H228.6V182.27h2.55a13.48,13.48,0,0,0,6.58-1.39q2.52-1.4,2.52-5a6,6,0,0,0-1.6-4.46,5.88,5.88,0,0,0-4.38-1.6,5.41,5.41,0,0,0-4.51,1.84,8.18,8.18,0,0,0-1.72,4.54H214.72Q215.05,167.68,220.31,163.05Z"/><circle class="b0e17127-01b4-44a3-b4e6-3348c011a615" cx="210.06" cy="188.46" r="74.48"/></svg>