<svg id="a950f3d5-8c80-4a13-818f-fc80aeef1e60" data-name="Layer 1" xmlns="http://www.w3.org/2000/svg" viewBox="0 0 400 400"><defs><style>.eaa65944-e811-4384-847d-67cac7e21073{fill:#006949;}.a298c8d2-385b-4a67-8a46-3384082971b7{fill:none;stroke:#006949;stroke-miterlimit:10;stroke-width:7.04px;}</style></defs><path class="eaa65944-e811-4384-847d-67cac7e21073" d="M169,166q5.29-7.89,17.1-7.89T203.19,166q5.31,7.91,5.3,21.62,0,13.88-5.3,21.77t-17.11,7.9q-11.81,0-17.1-7.9t-5.31-21.77Q163.67,173.94,169,166Zm24.36,9.22q-1.76-4.35-7.26-4.35t-7.25,4.35q-1.76,4.35-1.76,12.4a51.62,51.62,0,0,0,.64,9,11.42,11.42,0,0,0,2.59,5.74,8.69,8.69,0,0,0,11.56,0,11.43,11.43,0,0,0,2.6-5.74,52.63,52.63,0,0,0,.64-9Q195.1,179.61,193.34,175.26Z"/><path class="eaa65944-e811-4384-847d-67cac7e21073" d="M214.24,172V159.35h22.09v58.22h-14.2V172Z"/><circle class="a298c8d2-385b-4a67-8a46-3384082971b7" cx="200" cy="187.86" r="74.48"/></svg>