<svg id="e0c42f23-78ea-402e-8e9c-a59cd2b821f5" data-name="Layer 1" xmlns="http://www.w3.org/2000/svg" viewBox="0 0 400 400"><defs><style>.f1d3accf-e8c3-4217-9b40-afd23764304f{fill:#006949;}.e2e897d7-a470-4f1d-a597-bee579b0dbdc{fill:none;stroke:#006949;stroke-miterlimit:10;stroke-width:7.04px;}</style></defs><path class="f1d3accf-e8c3-4217-9b40-afd23764304f" d="M158.17,196.71q5.31-7.89,17.11-7.9t17.11,7.9q5.3,7.89,5.3,21.61,0,13.88-5.3,21.78T175.28,248q-11.81,0-17.11-7.89t-5.3-21.78Q152.87,204.61,158.17,196.71Zm24.37,9.21q-1.75-4.35-7.26-4.35T168,205.92q-1.76,4.35-1.75,12.4a52.88,52.88,0,0,0,.63,9,11.47,11.47,0,0,0,2.6,5.74,8.72,8.72,0,0,0,11.56,0,11.46,11.46,0,0,0,2.59-5.74,51.74,51.74,0,0,0,.64-9Q184.29,210.27,182.54,205.92Z"/><path class="f1d3accf-e8c3-4217-9b40-afd23764304f" d="M203,237.86v-11l25.21-36.05h15.23v35.25H250v11.8h-6.54v10.37H229.83V237.86Zm27.76-32.06-13.4,20.26h13.4Z"/><circle class="e2e897d7-a470-4f1d-a597-bee579b0dbdc" cx="201.44" cy="218.52" r="74.48"/></svg>