<svg id="e6705551-61f7-4d94-8eae-84acb620eb26" data-name="Layer 1" xmlns="http://www.w3.org/2000/svg" viewBox="0 0 400 400"><defs><style>.aa04f603-aa77-45de-86ec-76d23b28fd1f{fill:#006949;}.bd7a7a46-aab9-4558-8d09-ca23849d25ab{fill:none;stroke:#006949;stroke-miterlimit:10;stroke-width:7.04px;}</style></defs><path class="aa04f603-aa77-45de-86ec-76d23b28fd1f" d="M150,166.08q5.31-7.89,17.11-7.89t17.11,7.89q5.3,7.9,5.3,21.62,0,13.88-5.3,21.77t-17.11,7.9q-11.81,0-17.11-7.9t-5.3-21.77Q144.66,174,150,166.08Zm24.37,9.22q-1.76-4.35-7.26-4.35t-7.26,4.35q-1.76,4.33-1.75,12.4a52.76,52.76,0,0,0,.63,9,11.43,11.43,0,0,0,2.6,5.74,8.69,8.69,0,0,0,11.56,0,11.42,11.42,0,0,0,2.59-5.74,51.62,51.62,0,0,0,.64-9Q176.08,179.65,174.33,175.3Z"/><path class="aa04f603-aa77-45de-86ec-76d23b28fd1f" d="M197.13,204.69q7.83-6.47,12.33-10.61a51.19,51.19,0,0,0,7.61-8.69,15.71,15.71,0,0,0,3.11-8.86,7.77,7.77,0,0,0-1.51-5.1,6.29,6.29,0,0,0-9.29.44,10.41,10.41,0,0,0-1.72,6.42H194.5A22.69,22.69,0,0,1,197.41,167a17,17,0,0,1,7.26-6.7,23,23,0,0,1,10-2.15q9.49,0,14.32,4.86c3.21,3.25,4.82,7.47,4.82,12.69A24.88,24.88,0,0,1,228,191.49a85.9,85.9,0,0,1-14.83,14.23H234.7v11.09h-40V206.68C196.47,205.24,197.29,204.58,197.13,204.69Z"/><circle class="bd7a7a46-aab9-4558-8d09-ca23849d25ab" cx="189.68" cy="187.74" r="74.48"/></svg>